<svg width="516" height="516" viewBox="0 0 516 516" fill="none" xmlns="http://www.w3.org/2000/svg">
<g clip-path="url(#clip0_127_42)">
<rect width="516" height="516" fill="black"/>
<path d="M111.6 354.824C105.851 350.12 102.976 344.371 102.976 337.576C102.976 334.963 103.891 332.088 105.72 328.952C107.55 326.077 109.771 323.464 112.384 321.112C115.52 317.976 119.179 314.056 123.36 309.352C127.542 304.909 131.723 299.944 135.904 294.456C140.086 288.968 143.875 282.957 147.272 276.424C150.931 269.891 153.675 262.965 155.504 255.648C146.619 254.864 138.518 252.643 131.2 248.984C123.883 245.325 117.611 240.621 112.384 234.872C107.158 228.861 103.107 222.067 100.232 214.488C97.3576 206.648 95.9203 198.155 95.9203 189.008C95.9203 180.645 97.4883 172.936 100.624 165.88C103.76 158.563 108.203 152.291 113.952 147.064C119.963 141.576 126.888 137.264 134.728 134.128C142.83 130.992 151.846 129.424 161.776 129.424C173.536 129.424 183.728 131.515 192.352 135.696C200.976 139.616 208.163 145.104 213.912 152.16C219.662 158.955 223.843 166.925 226.456 176.072C229.331 184.957 230.768 194.365 230.768 204.296C230.768 217.363 228.678 231.344 224.496 246.24C220.315 260.875 214.043 275.64 205.68 290.536C197.579 305.432 187.387 320.067 175.104 334.44C162.822 348.813 148.71 361.88 132.768 373.64L111.6 354.824ZM299.944 354.824C294.195 350.12 291.32 344.371 291.32 337.576C291.32 334.963 292.235 332.088 294.064 328.952C295.893 326.077 298.115 323.464 300.728 321.112C303.864 317.976 307.523 314.056 311.704 309.352C315.885 304.909 320.067 299.944 324.248 294.456C328.429 288.968 332.219 282.957 335.616 276.424C339.275 269.891 342.019 262.965 343.848 255.648C334.963 254.864 326.861 252.643 319.544 248.984C312.227 245.325 305.955 240.621 300.728 234.872C295.501 228.861 291.451 222.067 288.576 214.488C285.701 206.648 284.264 198.155 284.264 189.008C284.264 180.645 285.832 172.936 288.968 165.88C292.104 158.563 296.547 152.291 302.296 147.064C308.307 141.576 315.232 137.264 323.072 134.128C331.173 130.992 340.189 129.424 350.12 129.424C361.88 129.424 372.072 131.515 380.696 135.696C389.32 139.616 396.507 145.104 402.256 152.16C408.005 158.955 412.187 166.925 414.8 176.072C417.675 184.957 419.112 194.365 419.112 204.296C419.112 217.363 417.021 231.344 412.84 246.24C408.659 260.875 402.387 275.64 394.024 290.536C385.923 305.432 375.731 320.067 363.448 334.44C351.165 348.813 337.053 361.88 321.112 373.64L299.944 354.824Z" fill="#E9FF70"/>
</g>
<defs>
<clipPath id="clip0_127_42">
<rect width="516" height="516" fill="white"/>
</clipPath>
</defs>
</svg>
